<svg width="50" height="50" viewBox="0 0 257 256" fill="none" xmlns="http://www.w3.org/2000/svg">
<path d="M72.652 115.317C73.3253 116.214 72.7642 117 71.6421 117H52.3409C52.1164 117 51.4431 116.776 51.3309 116.663L25.1845 84.345C22.9402 86.7016 1.05795 111.501 1.05795 111.501V28.2368C1.05795 27.788 1.61903 27.2269 2.29233 27.2269H17.1049C17.7782 27.2269 18.2271 27.788 18.2271 28.2368V69.0836L52.0042 27.5635C52.1164 27.4513 52.7897 27.2269 53.0142 27.2269H71.3054C72.5398 27.2269 73.1009 28.1246 72.3154 28.9101L36.6306 72.899L72.652 115.317ZM93.732 66.166H76.5629V28.2368C76.5629 27.788 77.124 27.2269 77.7973 27.2269H92.4977C93.2832 27.2269 93.732 27.788 93.732 28.2368V63.6972V66.166ZM143.668 27.2269C144.454 27.2269 144.903 27.788 144.903 28.2368V115.99C144.903 116.439 144.454 117 143.668 117H128.968C128.295 117 127.734 116.439 127.734 115.99V100.168H93.732V115.99C93.732 116.439 93.2832 117 92.4977 117H77.7973C77.124 117 76.5629 116.439 76.5629 115.99V83.3351H93.732V83.4473H127.734V80.4175V63.6972V28.2368C127.734 27.788 128.295 27.2269 128.968 27.2269H143.668ZM190.984 100.28V117H149.576C148.903 117 148.342 116.439 148.342 115.99V28.2368C148.342 27.788 148.903 27.2269 149.576 27.2269H190.984V43.4982H165.511V63.8094H200.747C201.42 63.8094 201.981 64.2583 201.981 64.8194V79.0709C201.981 79.5197 201.42 80.0808 200.747 80.0808H165.511V100.28H190.984ZM253.147 100.28C253.932 100.28 254.381 100.841 254.381 101.402V115.99C254.381 116.439 253.932 117 253.147 117H205.904C205.23 117 204.669 116.439 204.669 115.99V100.28H221.838H253.147ZM221.838 83.1106H204.669V28.2368C204.669 27.788 205.23 27.2269 205.904 27.2269H220.716C221.39 27.2269 221.838 27.788 221.838 28.2368V83.1106Z" fill="white"/>
<path d="M63.5625 125.688H0.375V118.188H63.5625V125.688ZM58.375 148.125C58.375 150.583 56.8958 153.354 53.9375 156.438C51.4375 159.062 48.8125 161.021 46.0625 162.312L36.6875 151.688C39.5208 151.438 42.2083 150.396 44.75 148.562C47.6667 146.479 49.125 144.104 49.125 141.438C49.125 140.021 48.2083 138.812 46.375 137.812C44.7917 136.896 43.2292 136.438 41.6875 136.438C38.4792 136.438 35.0417 137.979 31.375 141.062C23.9167 147.312 20.1875 154.229 20.1875 161.812V188.312L8.1875 182.062V135.812H20.3125V140.562C22.1042 138.771 25.8125 136.896 31.4375 134.938C34.1875 133.979 37.0208 133.5 39.9375 133.5C45.9792 133.5 51.1042 135.812 55.3125 140.438C57.3542 142.688 58.375 145.25 58.375 148.125ZM123.562 125.688H81.9375V135.688C82.1042 135.688 82.2708 135.771 82.4375 135.938C82.6042 136.104 82.75 136.188 82.875 136.188C82.5417 136.188 82.3542 136.167 82.3125 136.125C82.3125 135.917 85.4167 135.25 91.625 134.125C93.9167 133.708 96.1875 133.5 98.4375 133.5C107.812 133.5 113.833 136.125 116.5 141.375C118.292 144.875 119.188 151.938 119.188 162.562V186.625C118.312 186.292 115 184.938 109.25 182.562C109.25 181.229 108.979 180.375 108.438 180C106.229 181.292 104.417 182.271 103 182.938C98.5 185.062 93.2708 186.125 87.3125 186.125C79.1042 186.125 72.7708 183.542 68.3125 178.375C66.1458 175.875 65.0625 173.083 65.0625 170C65.0625 166.542 66.7708 163.104 70.1875 159.688C76.8125 153.062 85.0417 149.75 94.875 149.75C100.833 149.75 105.625 151.125 109.25 153.875V148.125C107.417 145.792 105.625 144.229 103.875 143.438C102.167 142.646 99.8125 142.292 96.8125 142.375C90.1042 142.5 83.9583 143.729 78.375 146.062C75.875 147.104 73.4375 148.042 71.0625 148.875V144.25C71.6042 143.792 72.3958 143.104 73.4375 142.188C73.6042 141.979 73.7083 141.854 73.75 141.812V125.688H60.9375V118.188H123.562V125.688ZM109.25 165.25C109.25 163.417 107.062 161.771 102.688 160.312C99.0625 159.104 96.0417 158.5 93.625 158.5C84.8333 158.5 77.7917 161.667 72.5 168C70.375 170.542 69.3125 172.625 69.3125 174.25C70.1875 177.292 73.625 178.812 79.625 178.812C87.375 178.812 94.4583 176.875 100.875 173C106.458 169.625 109.25 167.042 109.25 165.25ZM184.438 125.688H142.812V135.688C142.979 135.688 143.146 135.771 143.312 135.938C143.479 136.104 143.625 136.188 143.75 136.188C143.417 136.188 143.229 136.167 143.188 136.125C143.188 135.917 146.292 135.25 152.5 134.125C154.792 133.708 157.062 133.5 159.312 133.5C168.688 133.5 174.708 136.125 177.375 141.375C179.167 144.875 180.062 151.938 180.062 162.562V186.625C179.188 186.292 175.875 184.938 170.125 182.562C170.125 181.229 169.854 180.375 169.312 180C167.104 181.292 165.292 182.271 163.875 182.938C159.375 185.062 154.146 186.125 148.188 186.125C139.979 186.125 133.646 183.542 129.188 178.375C127.021 175.875 125.938 173.083 125.938 170C125.938 166.542 127.646 163.104 131.062 159.688C137.688 153.062 145.917 149.75 155.75 149.75C161.708 149.75 166.5 151.125 170.125 153.875V148.125C168.292 145.792 166.5 144.229 164.75 143.438C163.042 142.646 160.688 142.292 157.688 142.375C150.979 142.5 144.833 143.729 139.25 146.062C136.75 147.104 134.312 148.042 131.938 148.875V144.25C132.479 143.792 133.271 143.104 134.312 142.188C134.479 141.979 134.583 141.854 134.625 141.812V125.688H121.812V118.188H184.438V125.688ZM170.125 165.25C170.125 163.417 167.938 161.771 163.562 160.312C159.938 159.104 156.917 158.5 154.5 158.5C145.708 158.5 138.667 161.667 133.375 168C131.25 170.542 130.188 172.625 130.188 174.25C131.062 177.292 134.5 178.812 140.5 178.812C148.25 178.812 155.333 176.875 161.75 173C167.333 169.625 170.125 167.042 170.125 165.25ZM256.062 118.188L255.938 125.688H203.188L203.312 162.562C203.312 167.979 204.25 171.917 206.125 174.375C208.25 177.083 211.958 178.562 217.25 178.812C220.625 178.979 224 177.875 227.375 175.5C230.375 173.417 232.854 170.771 234.812 167.562C236.938 164.062 238 160.646 238 157.312L237.875 133.75L250.938 138.25V202.25C250.938 210.042 247.354 216.396 240.188 221.312C233.562 225.854 225.792 228.125 216.875 228.125C201.792 228.125 191.062 224.021 184.688 215.812C182.104 212.479 180.812 209.625 180.812 207.25C180.854 202.042 183.771 197.667 189.562 194.125C194.688 191 200 189.438 205.5 189.438L213.438 200.062C206.271 200.562 199.854 202.083 194.188 204.625C190.479 206.292 188.625 208.438 188.625 211.062C189.083 214.854 191.938 218.208 197.188 221.125C200.312 222.875 204.354 223.75 209.312 223.75C220.688 223.75 229.271 220.062 235.062 212.688C237.812 209.188 239.188 205.104 239.188 200.438V175C236.479 179.417 229.25 181.625 217.5 181.625C207.625 181.625 200.146 178.25 195.062 171.5C192.562 168.208 191.312 164.458 191.312 160.25V125.688H182.438V118.188H256.062Z" fill="white"/>
</svg>
